# xmcd
#
# Track frame offsets: 
#        150
#        15859
#        30540
#        44415
#        56384
#        74301
#        92142
#        104108
#        126384
#        141237
#        155805
#        172368
#
# Disc length: 2493 seconds
#
# Revision: 0
# Processed by: cddbd v1.5.2PL0 Copyright (c) Steve Scherf et al.
# Submitted via: ExactAudioCopy v1.3
#
DISCID=ae09bb0c
DTITLE=Στέλιος Καζαντζίδης - Μεγάλες στιγμές
DYEAR=1997
DGENRE=Λαϊκή
TTITLE0=Το πέλαγο είναι βαθύ 
TTITLE1=Ποιος δρόμος είναι ανοιχτός
TTITLE2=Άπονη ζωή 
TTITLE3=Στα χέρια σου μεγάλωσαν 
TTITLE4=Καϋμός 
TTITLE5=Μετανάστης 
TTITLE6=Ο κυρ Αντώνης 
TTITLE7=Το Σαββατόβραδο
TTITLE8=Απόκληρος της κοινωνίας
TTITLE9=Θεσσαλονίκη μου 
TTITLE10=Ένας σκύλος και μιά γυναίκα 
TTITLE11=Αυτή η νύχτα μένει
EXTD=
EXTT0=
EXTT1=
EXTT2=
EXTT3=
EXTT4=
EXTT5=
EXTT6=
EXTT7=
EXTT8=
EXTT9=
EXTT10=
EXTT11=
PLAYORDER=
